<svg xmlns="http://www.w3.org/2000/svg" xmlns:xlink="http://www.w3.org/1999/xlink"><defs><symbol id="icon-arrow_down-63774" viewBox="0 0 25.18 16.164"><path d="M13.293 15.871a.99.99 0 0 1-1.406 0L.293 4.293a1.009 1.009 0 0 1 0-1.422L2.887.293a.99.99 0 0 1 1.406 0L12.59 8.59 20.887.293a.99.99 0 0 1 1.406 0l2.594 2.578a1.009 1.009 0 0 1 0 1.422L13.293 15.871z"/></symbol><symbol id="icon-stars1-9d197" viewBox="0 0 186.861 110.966"><circle cx="70.704" cy="105.783" r="5.182"/><circle cx="5.183" cy="78.269" r="5.183"/><circle cx="121.8" cy="63.519" r="2.848"/><circle cx="48.859" cy="49.678" r="2.848"/><circle cx="33.16" cy="17.826" r="2.848"/><circle cx="87.597" cy="7.948" r="2.848"/><path fill="none" d="M5.183 78.269l65.521 27.513 51.097-42.263z"/><path fill="none" d="M33.16 17.825L5.183 78.269l65.521 27.513L88.01 7.825zm15.699 31.852l72.942 13.842"/><circle cx="181.678" cy="93.211" r="5.182"/><circle cx="136.611" cy="5.184" r="5.183"/><circle cx="176.274" cy="27.121" r="2.848"/><circle cx="123.17" cy="79.005" r="2.848"/><circle cx="88.066" cy="73.644" r="2.848"/><circle cx="111.13" cy="23.354" r="2.848"/><path fill="none" d="M123.17 79.005l58.508 14.205-5.404-66.09z"/><path fill="none" d="M88.065 73.644l48.546-68.461 45.067 88.027-70.413-70.265zm35.104 5.36l53.105-51.884"/></symbol><symbol id="icon-about_bg_left-c7877" viewBox="0 0 900.006 1013.986"><path fill-rule="evenodd" clip-rule="evenodd" d="M.01 0l899.997 159.008v854.979H0L.01 0z"/></symbol><symbol id="icon-about_bg_right-7c094" viewBox="0 0 900.331 1009.986"><path fill-rule="evenodd" clip-rule="evenodd" d="M0 155.008L900.331 0l-.005 1009.986H0V155.008z"/></symbol><symbol id="icon-vk-738a2" viewBox="0 0 30.011 17.123"><path d="M27.625 5.832c-3.031 4.031-3.359 3.656-.859 5.984 2.406 2.234 2.906 3.313 2.984 3.453 0 0 1 1.75-1.109 1.766l-4 .063c-.859.172-2-.609-2-.609-1.5-1.031-2.906-3.703-4-3.359 0 0-1.125.359-1.094 2.766.016.516-.234.797-.234.797s-.281.297-.828.344h-1.797c-3.953.25-7.438-3.391-7.438-3.391S3.437 9.707.093 1.848c-.219-.516.016-.766.016-.766S.343.785 1 .785L5.281.754c.406.063.688.281.688.281s.25.172.375.5c.703 1.75 1.609 3.344 1.609 3.344 1.563 3.219 2.625 3.766 3.234 3.438 0 0 .797-.484.625-4.375-.063-1.406-.453-2.047-.453-2.047-.359-.485-1.031-.625-1.328-.672-.234-.031.156-.594.672-.844.766-.375 2.125-.391 3.734-.375 1.266.016 1.625.094 2.109.203 1.484.359.984 1.734.984 5.047 0 1.063-.203 2.547.563 3.031.328.219 1.141.031 3.141-3.375 0 0 .938-1.625 1.672-3.516.125-.344.391-.484.391-.484s.25-.141.594-.094l4.5-.031c1.359-.172 1.578.453 1.578.453.234.641-.501 2.141-2.344 4.594z"/></symbol><symbol id="icon-github-4dc5c" viewBox="0 0 26 22"><path d="M25.047 17.422C22.984 21.594 17.313 22 13.25 22 9.125 22 3.109 21.641.969 17.422.172 15.844 0 13.984 0 12.25c0-2.281.625-4.438 2.125-6.188a8.585 8.585 0 0 1-.422-2.656c0-1.172.266-2.343.797-3.406 2.469 0 4.047 1.078 5.922 2.547A20.895 20.895 0 0 1 13.25 2c1.469 0 2.953.156 4.375.5C19.484 1.047 21.063 0 23.5 0a7.629 7.629 0 0 1 .797 3.406c0 .891-.141 1.781-.422 2.625C25.375 7.797 26 9.969 26 12.25c0 1.734-.172 3.578-.953 5.172zM18.5 10.5c-1.031 0-2.016.188-3.047.328-.812.125-1.625.172-2.453.172s-1.641-.047-2.453-.172c-1.016-.14-2.016-.328-3.047-.328-2.547 0-4 2.109-4 4.5 0 4.781 4.375 5.516 8.188 5.516h2.625c3.813 0 8.188-.734 8.188-5.516-.001-2.391-1.454-4.5-4.001-4.5zM8 18c-1.406 0-2-1.859-2-3s.594-3 2-3 2 1.859 2 3-.594 3-2 3zm10 0c-1.406 0-2-1.859-2-3s.594-3 2-3 2 1.859 2 3-.594 3-2 3z"/></symbol><symbol id="icon-in-9b632" viewBox="0 0 24 22.938"><path d="M2.875 5.344h-.031C1.109 5.344 0 4.156 0 2.672 0 1.156 1.156 0 2.906 0c1.766 0 2.859 1.156 2.875 2.672.016 1.484-1.109 2.672-2.906 2.672zm2.578 17.594H.297V7.453h5.156v15.485zm18.547 0h-5.141v-8.281c0-2.078-.75-3.5-2.609-3.5-1.422 0-2.266.953-2.641 1.875-.125.344-.172.797-.172 1.266v8.641h-5.14c.063-14.031 0-15.484 0-15.484h5.141v2.25h-.031c.672-1.063 1.891-2.609 4.672-2.609 3.391 0 5.922 2.219 5.922 6.969v8.873z"/></symbol><symbol id="icon-stars2-f3213" viewBox="0 0 171.5 132.5"><circle cx="4.25" cy="92.25" r="4.25"/><circle cx="48.25" cy="128.25" r="4.25"/><circle cx="72.75" cy="52.75" r="4.75"/><circle cx="8.25" cy="22.25" r="4.25"/><circle cx="117.25" cy="96.25" r="2.75"/><circle cx="126.25" cy="41.25" r="1.911"/><circle cx="167.25" cy="4.25" r="4.25"/><path fill="none" d="M72.75 52.75l44.5 43.5-113-4 44 36 69-32 50-92-41 37-53.5 13.084L8.25 22.25m40 109.084L8.5 24.339"/></symbol><symbol id="icon-stars3-ac45e" viewBox="0 0 103.03 124.03"><circle cx="5.182" cy="60.182" r="5.182"/><circle cx="50.182" cy="5.182" r="5.182"/><circle cx="31.182" cy="121.182" r="2.848"/><circle cx="65.182" cy="55.182" r="2.848"/><circle cx="100.182" cy="49.182" r="2.848"/><circle cx="94.182" cy="104.182" r="2.848"/><path fill="none" d="M50.183 5.182l-45 55 26 61.001z"/><path fill="none" d="M100.183 49.182l-50-44-45 55 89 44.43zm-35 6l-34 66.001"/></symbol><symbol id="icon-skype_n-cca7e" viewBox="277 277 46 46"><path d="M298.473 298.13c-3.38-.838-1.53-3.789 1.209-3.745 2.658.043 4.01 2.907 5.215 2.759 1.208-.149 2.236-1.994.338-3.645-1.643-1.43-3.718-2.218-6.907-1.922-2.502.232-4.878 1.873-5.168 5.074-.29 3.203 3.431 4.829 6.377 5.273 2.064.31 4.88 1.329 3.189 3.299-1.554 1.813-4.493.692-5.266.2-.773-.495-1.644-2.269-3.094-2.17-1.452.097-2.166 2.04-.385 3.744 1.595 1.526 3.334 2.364 7.052 2.167 3.722-.198 7.054-3.546 5.749-6.7-1.303-3.153-4.925-3.496-8.309-4.334z"/><path d="M300 277.5c-12.427 0-22.5 10.073-22.5 22.5 0 12.426 10.073 22.5 22.5 22.5s22.5-10.074 22.5-22.5c0-12.427-10.073-22.5-22.5-22.5zm5.756 35.229a6.915 6.915 0 0 1-3.688-1.067c-.69.127-1.4.198-2.129.198-6.458 0-11.688-5.282-11.688-11.798 0-.631.049-1.253.145-1.859a7.111 7.111 0 0 1-1.124-3.853c0-3.909 3.121-7.078 6.975-7.078 1.405 0 2.711.423 3.81 1.149a11.348 11.348 0 0 1 1.883-.156c6.455 0 11.688 5.284 11.688 11.799 0 .541-.039 1.075-.109 1.601a7.119 7.119 0 0 1 1.212 3.987c0 3.91-3.122 7.077-6.975 7.077z"/></symbol><symbol id="icon-envelope_n-bc530" viewBox="1138.75 328.75 45 45"><path d="M1161.25 328.75c-12.427 0-22.5 10.073-22.5 22.5s10.073 22.5 22.5 22.5 22.5-10.073 22.5-22.5-10.073-22.5-22.5-22.5zm-13.281 17.604l7.269 4.442-7.269 9.138v-13.58zm.83 14.541l7.51-9.443 4.926 3.012 4.918-3.028 7.518 9.46h-24.872zm25.732-.921l-7.311-9.197 7.311-4.502v13.699zm0-15.163L1161.234 353l-13.265-8.106v-2.208h26.563v2.125z"/></symbol><symbol id="icon-phone_n-cb008" viewBox="338.678 110.5 45 45"><path d="M361.178 110.5c-12.427 0-22.5 10.073-22.5 22.5s10.073 22.5 22.5 22.5 22.5-10.073 22.5-22.5-10.074-22.5-22.5-22.5zm13.433 31.703c-1.034 1.601-1.934 3.261-6.258 3.358-4.418.004-8.989-3.655-12.318-7.307-3.323-3.232-6.396-7.408-6.394-11.457.1-4.324 1.76-5.224 3.36-6.258 0 0 .876-.368 1.639.295.762.663 4.103 4.005 4.103 4.005s1.188.991.369 2.089c-.652.874-2.157 2.484-2.354 2.696l.564 1.063c.755 1.244 2.194 3.43 4.349 5.201 1.453 1.195 3.911 2.506 3.91 2.504.354-.329 1.823-1.689 2.641-2.301 1.098-.82 2.088.367 2.088.367s3.342 3.343 4.006 4.105c.663.764.295 1.64.295 1.64z"/></symbol><symbol id="icon-map_n-0baaa" viewBox="333.75 72.532 45 45"><circle cx="356.342" cy="92.018" r="5.854"/><path d="M356.25 72.532c-12.427 0-22.5 10.073-22.5 22.5s10.073 22.5 22.5 22.5 22.5-10.073 22.5-22.5-10.073-22.5-22.5-22.5zm0 37.882c-1.438-1.127-11.252-9.062-11.252-17.422 0-6.203 4.98-11.24 11.16-11.339v-.004l.092.001.092-.001v.004c6.18.099 11.16 5.136 11.16 11.339 0 8.36-9.814 16.295-11.252 17.422z"/></symbol></defs><view id="view-icon-arrow_down-63774" viewBox="0 0 78.13 50"></view><view id="view-icon-stars1-9d197" viewBox="100 0 84.55 50"></view><view id="view-icon-about_bg_left-c7877" viewBox="200 0 44.42 50"></view><view id="view-icon-about_bg_right-7c094" viewBox="250 0 44.6 50"></view><view id="view-icon-vk-738a2" viewBox="300 0 88.24 50"></view><view id="view-icon-github-4dc5c" viewBox="400 0 59.09 50"></view><view id="view-icon-in-9b632" viewBox="500 0 54.55 50"></view><view id="view-icon-stars2-f3213" viewBox="600 0 64.77 50"></view><view id="view-icon-stars3-ac45e" viewBox="700 0 41.53 50"></view><view id="view-icon-skype_n-cca7e" viewBox="750 0 50 50"></view><view id="view-icon-envelope_n-bc530" viewBox="800 0 50 50"></view><view id="view-icon-phone_n-cb008" viewBox="850 0 50 50"></view><view id="view-icon-map_n-0baaa" viewBox="900 0 50 50"></view><use id="arrow_down-63774" xlink:href="#icon-arrow_down-63774" width="78.13" height="50" x="0" y="0"></use><use id="stars1-9d197" xlink:href="#icon-stars1-9d197" width="84.55" height="50" x="100" y="0"></use><use id="about_bg_left-c7877" xlink:href="#icon-about_bg_left-c7877" width="44.42" height="50" x="200" y="0"></use><use id="about_bg_right-7c094" xlink:href="#icon-about_bg_right-7c094" width="44.6" height="50" x="250" y="0"></use><use id="vk-738a2" xlink:href="#icon-vk-738a2" width="88.24" height="50" x="300" y="0"></use><use id="github-4dc5c" xlink:href="#icon-github-4dc5c" width="59.09" height="50" x="400" y="0"></use><use id="in-9b632" xlink:href="#icon-in-9b632" width="54.55" height="50" x="500" y="0"></use><use id="stars2-f3213" xlink:href="#icon-stars2-f3213" width="64.77" height="50" x="600" y="0"></use><use id="stars3-ac45e" xlink:href="#icon-stars3-ac45e" width="41.53" height="50" x="700" y="0"></use><use id="skype_n-cca7e" xlink:href="#icon-skype_n-cca7e" width="50" height="50" x="750" y="0"></use><use id="envelope_n-bc530" xlink:href="#icon-envelope_n-bc530" width="50" height="50" x="800" y="0"></use><use id="phone_n-cb008" xlink:href="#icon-phone_n-cb008" width="50" height="50" x="850" y="0"></use><use id="map_n-0baaa" xlink:href="#icon-map_n-0baaa" width="50" height="50" x="900" y="0"></use></svg>